<svg width="46" height="24" fill="none" xmlns="http://www.w3.org/2000/svg"><path fill-rule="evenodd" clip-rule="evenodd" d="M46 .312c-1.323.601-2.756 1.065-4.116 1.62-2.16.81-4.239 1.742-6.415 2.556-1.37.59-2.848 1.159-4.216 1.775-3.742 1.405-7.291 3.261-10.908 4.923-2.648 1.39-5.468 2.801-7.274 5.308-1.657 2.14-2.108 4.921-2.6 7.506-.128-2.346-.109-4.8-1.265-6.91-.88-1.579-2.954-1.914-4.576-1.547-1.497-.16-3.502 1.156-4.604.804 1.636-1.12 3.52-1.874 5.128-2.99 2.002-1.372 4.192-2.711 5.257-5.005.939-1.847 1.502-3.846 2.179-5.796.657-.949.292 1.793.714 2.425.407 1.92 2.448 3.26 4.31 2.629 1.91-.359 3.811-.931 5.686-1.457 1.651-.356 3.249-.899 4.9-1.358 1.812-.428 3.733-1.022 5.453-1.491C37.432 2.198 41.198 1.188 44.97.062c.347-.048.811-.089 1.029.25z" style="fill:#d2f;fill-opacity:1"/></svg>